<svg id="Layer_1" data-name="Layer 1" xmlns="http://www.w3.org/2000/svg" viewBox="0 0 941.56 277.69"><defs><style>.cls-1{font-size:257.07px;fill:#f9d976;font-family:Coolvetica-Regular, Coolvetica;}.cls-2{fill:#6366f1;}.cls-3{fill:none;stroke:#f9d976;stroke-miterlimit:10;stroke-width:43px;}</style></defs><text class="cls-1" transform="translate(0 217.79)">Kiddie</text><path class="cls-2" d="M713.25,268.72,678.91,286a66.8,66.8,0,0,0-31.35,33.29l-15.19,35.31a66.8,66.8,0,0,0-2.62,45.65l11.06,36.82a66.82,66.82,0,0,0,27.34,36.65l32.14,21.1a66.85,66.85,0,0,0,44.5,10.5l38.18-4.5a66.89,66.89,0,0,0,40.85-20.56l26.35-28a66.81,66.81,0,0,0,18.07-42l2.2-38.38a66.86,66.86,0,0,0-13.15-43.79l-23-30.82a66.81,66.81,0,0,0-38.22-25.09l-37.42-8.83A66.81,66.81,0,0,0,713.25,268.72Z" transform="translate(71.01 -261.58)"/><path class="cls-3" d="M681.24,406.71l58.12,37,75.42-124.28" transform="translate(71.01 -261.58)"/></svg>